<?xml version="1.0" encoding="UTF-8"?>
<!DOCTYPE svg PUBLIC "-//W3C//DTD SVG 1.1//EN" "http://www.w3.org/Graphics/SVG/1.1/DTD/svg11.dtd">
<!-- Creator: CorelDRAW 2021 (64 Bit) -->
<svg xmlns="http://www.w3.org/2000/svg" xml:space="preserve" width="1422px" height="524px" version="1.1" style="shape-rendering:geometricPrecision; text-rendering:geometricPrecision; image-rendering:optimizeQuality; fill-rule:evenodd; clip-rule:evenodd"
viewBox="0 0 1377.18 507.09"
 xmlns:xlink="http://www.w3.org/1999/xlink"
 xmlns:xodm="http://www.corel.com/coreldraw/odm/2003">
 <defs>
  <style type="text/css">
   <![CDATA[
    .fil0 {fill:#0954A1}
    .fil1 {fill:#7994C6}
    .fil2 {fill:#7DBA06}
    .fil3 {fill:#0954A1;fill-rule:nonzero}
   ]]>
  </style>
 </defs>
 <g id="Camada_x0020_1">
  <metadata id="CorelCorpID_0Corel-Layer"/>
  <path class="fil0" d="M709.36 0c104.58,0 202.9,7.1 288.53,19.57 -62.46,-6.02 -130.04,-9.31 -200.59,-9.31 -317.83,0 -575.48,66.71 -575.48,149 0,82.29 257.65,149 575.48,149 70.55,0 138.13,-3.29 200.59,-9.31 -85.63,12.47 -183.95,19.57 -288.53,19.57 -331.59,0 -600.39,-71.3 -600.39,-159.26 0,-87.96 268.8,-159.26 600.39,-159.26z"/>
  <path class="fil1" d="M818.01 46.9c-76.99,0 -149.37,5.01 -212.4,13.81 45.98,-4.25 95.73,-6.57 147.67,-6.57 233.98,0 423.66,47.06 423.66,105.12 0,58.06 -189.68,105.12 -423.66,105.12 -51.94,0 -101.69,-2.32 -147.67,-6.57 63.03,8.8 135.41,13.81 212.4,13.81 244.12,0 442.01,-50.31 442.01,-112.36 0,-62.06 -197.89,-112.36 -442.01,-112.36z"/>
  <path class="fil2" d="M711.07 84.82c38.94,-0.28 334.56,7.13 334.56,55.56 0,26.83 -140.43,47.88 -258.72,47.3 -118.3,-0.59 -134.74,-4.36 -190.39,-13.71 57.71,5.38 67.14,4.49 155.73,5.53 88.58,1.04 232.37,-14.73 232.37,-38.76 0,-35.78 -168.21,-42.52 -202.95,-43.18 -194.53,-3.68 -352.23,22.55 -352.23,58.61 0,35.57 153.47,67.4 344.36,71.79 -20.35,0.91 -41.31,1.47 -62.73,1.62 -193.04,1.41 -349.54,-29.85 -349.54,-69.83 0,-39.97 156.5,-73.52 349.54,-74.93z"/>
  <path class="fil3" d="M272.62 494.7c-14.2,4.18 -29.89,7.3 -47,9.33 -17.03,2.03 -36.26,3.06 -57.6,3.06 -24.17,0 -46.46,-1.59 -66.87,-4.74 -20.4,-3.18 -37.9,-7.77 -52.65,-13.8 -16.09,-6.65 -28.17,-14.39 -36.34,-23.18 -8.08,-8.8 -12.16,-18.57 -12.16,-29.31 0,-7.18 1.8,-13.98 5.42,-20.42 3.61,-6.45 8.86,-12.27 15.77,-17.51 14.67,-11.09 33.9,-19.48 57.68,-25.16 23.78,-5.67 51.63,-8.53 83.65,-8.53 18.84,0 36.65,0.85 53.37,2.59 16.71,1.74 32.8,4.35 48.26,7.86l0 28.33c-10.12,-4.89 -22.05,-8.57 -35.78,-11.01 -13.74,-2.44 -43.45,-3.65 -60.71,-3.65 -29.74,0 -64.83,3.99 -82.8,11.95 -17.97,7.95 -26.92,21.98 -26.92,35.25 0,13.57 9.09,26.23 27.23,34.03 18.19,7.82 54.24,11.71 85.71,11.71 17.58,0 47.91,-1.2 62.58,-3.59 14.6,-2.37 27.71,-5.94 39.16,-10.71l0 27.5z"/>
  <polygon class="fil3" points="306.83,504.26 306.83,367.44 496.6,367.44 497.49,391.14 367.33,391.14 366.44,420.93 479.48,420.93 479.48,442.94 366.44,442.94 366.44,479.69 509.79,479.69 509.79,504.26 "/>
  <path class="fil3" d="M647.21 394.28l-36.73 0 0 82.97 36.73 0c41.14,0 72.01,-3.44 92.65,-10.41 20.58,-6.95 30.86,-17.39 30.86,-31.28 0,-13.86 -10.19,-24.21 -30.6,-31.04 -20.47,-6.85 -51.43,-10.24 -92.91,-10.24zm-95.39 109.98l0 -136.82 94.74 0c24.9,0 46.13,0.59 63.63,1.77 17.49,1.17 31.6,3 42.18,5.47 25.54,5.91 44.87,14.04 58.13,24.36 13.19,10.33 19.82,22.42 19.82,36.34 0,13.86 -6.14,25.84 -18.48,35.96 -12.35,10.12 -30.76,18.21 -55.1,24.3 -12.13,3.06 -27.51,5.24 -46.13,6.59 -18.62,1.36 -43.45,2.03 -74.63,2.03l-84.16 0z"/>
  <path class="fil3" d="M914.45 471.72l-27.58 32.54 -60.02 0 131.06 -136.82 57.14 0 125.19 136.82 -63.95 0 -28.06 -32.54 -133.78 0zm14.51 -19.7l104.69 0 -52.66 -60.27 -52.03 60.27z"/>
  <polygon class="fil3" points="1174.22,504.26 1174.22,367.44 1363.99,367.44 1364.88,391.14 1234.72,391.14 1233.83,420.93 1346.87,420.93 1346.87,442.94 1233.83,442.94 1233.83,479.69 1377.18,479.69 1377.18,504.26 "/>
 </g>
</svg>
